<svg version="1.2" xmlns="http://www.w3.org/2000/svg" viewBox="0 0 772 250" width="772" height="250">
    <style>.a{fill:#4fbbbd}.b{fill:#312782}</style>
    <path class="a" d="m19.6 177.2c-10.3 0-18.7-8.4-18.7-18.7 0-10.3 8.4-18.7 18.7-18.7 10.3 0 18.7 8.4 18.7 18.7 0 10.3-8.4 18.7-18.7 18.7z"/><path class="a" d="m19.6 245.1c-10.3 0-18.7-8.4-18.7-18.7 0-10.3 8.4-18.7 18.7-18.7 10.3 0 18.7 8.4 18.7 18.7 0 10.3-8.4 18.7-18.7 18.7z"/><path fill-rule="evenodd" class="b" d="m369.1 57.8c0-32.8 24.6-57.5 57.2-57.5 32.6 0 57.2 24.7 57.2 57.5 0 32.8-24.6 57.5-57.2 57.5-32.7 0-57.2-24.8-57.2-57.5zm25.1 0c0 19.1 13.2 32.4 32.1 32.4 18.8 0 32-13.3 32-32.4 0-19.1-13.1-32.4-32-32.4-18.9 0-32.1 13.3-32.1 32.4z"/><path fill-rule="evenodd" class="b" d="m173.7 192.6c0 35.3-24.1 57.2-63 57.2h-29.6c-6.8 0-12.3-5.5-12.3-12.3v-89.9c0-6.8 5.5-12.3 12.3-12.3h29.6c38.9 0 63 21.9 63 57.3zm-25.1-0.1c0-26.5-20.6-32.1-37.9-32.1h-16.7v64.1h16.7c17.3 0 37.9-5.6 37.9-32z"/><path class="b" d="m369.5 213.8c0 22.1-18.4 36.3-46.9 36.3-19.2 0-33.5-7.9-40.3-12.6-2.7-1.9-4.6-4.8-5.1-8.1-0.5-3.3 0.3-6.6 2.3-9.3l0.4-0.5c3.9-5.3 11.3-6.5 16.7-2.8 3.6 2.4 13.3 8.1 26 8.1 18.9 0 21.7-6.9 21.7-11.1 0-3 0-6.9-14.4-8.3l-13.8-1.4c-32.4-3.2-37.2-22.3-37.2-33.4 0-21 17.7-35.7 43.1-35.7 19.3 0 32.1 7 39.4 12.8 5.1 4.2 6.1 11.7 2.1 17l-0.4 0.5c-2 2.7-4.9 4.4-8.2 4.8-3.3 0.4-6.6-0.5-9.2-2.6-4.2-3.4-11.8-7.4-23.7-7.4-3 0-17.9 0.5-17.9 10.5 0 2.5 0 6.9 14.4 8.3l13.8 1.4c30.6 3.1 37.1 19.9 37.2 33.5z"/><path class="b" d="m772.1 213.7c0 22.1-18.4 36.3-46.9 36.3-19.2 0-33.5-7.9-40.3-12.6-2.8-1.9-4.7-4.8-5.2-8.1-0.5-3.3 0.3-6.6 2.3-9.3l0.4-0.3c3.9-5.3 11.3-6.5 16.7-2.8 3.6 2.4 13.3 8.1 26 8.1 18.9 0 21.7-6.9 21.7-11.1 0-3 0-6.9-14.4-8.3l-13.8-1.4c-32.4-3.2-37.2-22.3-37.2-33.4 0-21 17.7-35.7 43.1-35.7 19.2 0 32 7 39.3 12.8 5.2 4.2 6.2 11.7 2.2 17l-0.4 0.5c-2 2.7-4.9 4.4-8.2 4.8-3.3 0.4-6.6-0.5-9.2-2.6-4.2-3.4-11.7-7.4-23.7-7.4-3 0-17.9 0.5-17.9 10.5 0 2.5 0 6.9 14.4 8.3l13.9 1.3c30.6 3.1 37.1 19.9 37.2 33.4z"/><path class="b" d="m613.4 118.3c-0.5-4.5 1.6-8.9 5.5-11.3l18.9-11.5c3-1.9 6.6-2.3 9.9-1.2l0.8 0.3c4.3 1.5 7.4 5.3 7.9 9.8 0.5 4.5-1.6 8.9-5.5 11.3l-18.8 11.5c-3 1.9-6.6 2.3-9.9 1.2l-0.8-0.3c-4.4-1.5-7.5-5.3-8-9.8z"/><path fill-rule="evenodd" class="b" d="m251.3 105.5c0 5.2-4.3 9.5-9.5 9.5h-6.1l-0.1-0.1c-3.9-0.2-7.2-2.7-8.5-6.3l-4.9-12.8h-44.2l-5 12.8c-1.3 3.7-4.8 6.4-8.9 6.4h-5.2c-5.2 0-9.5-4.3-9.5-9.5 0-1.1 0.3-2 0.6-3l37.8-95.6 0.2-0.1c1.3-3.8 4.7-6.5 8.9-6.5h7.1l0.1 0.1c3.8 0.2 6.9 2.5 8.3 5.8l38.1 95.6c0.5 1.1 0.8 2.3 0.8 3.7zm-37.2-30.5l-13.9-36.7-14.3 36.7z"/><path fill-rule="evenodd" class="b" d="m156.7 38.7c0 23.2-17.2 38.2-43.9 38.2h-18.9v27.5h-0.1c-0.2 5.8-5 10.5-10.9 10.5h-3.6c-5.8-0.2-10.5-5-10.5-10.9v-92.9c0.2-5.9 5-10.7 11-10.7l33 0.2c26.7 0 44 14.9 43.9 38.1zm-25 0c0-8.6-6.4-13-18.8-13h-18.9v26.1h18.8c12.5 0 18.8-4.4 18.9-13.1z"/><path class="b" d="m360.1 62.1v0.5c-0.2 30.4-19.9 52.5-51.9 52.5-32.6 0-57.2-24.7-57.2-57.5 0-32.8 24.6-57.5 57.2-57.5 17.2 0 34.5 8.1 43.2 19.1 2.1 2.7 3.1 6 2.7 9.3-0.4 3.4-2.1 6.4-4.8 8.4l-0.5 0.4c-5.2 3.9-12.1 2.3-16.8-2-5.9-5.4-14-9.9-23.8-9.9-18.8 0-32 13.3-32 32.4 0 19.1 13.1 32.4 32 32.4 14.1 0 23.1-7.7 25.8-16.4h-3.4-22.2c-6.1 0-11-4.9-11-11 0-0.1 0-0.3 0-0.4v-1.6c0-0.1 0-0.3 0-0.4 0-6.1 4.9-11 11-11 0.1 0 0.1 0 0.2 0h22.1 11.7 6.7c0.1 0 0.1 0 0.2 0 0.1 0 0.1 0 0.2 0h0.1c5.8 0.1 10.5 4.8 10.7 10.6z"/><path class="b" d="m268 149.7c-0.2 5.9-5 10.7-11 10.7h-0.1-20.1-26v19.1h23.2 20 0.1c6.1 0 11 4.9 11 11q0 0.1 0 0.3v2.6q0 0.2 0 0.3 0 0.2 0 0.3v0.2c-0.2 5.8-5 10.5-10.9 10.5h-20.2-23.2v19.8h15.6 30.6c6.1 0 11 4.9 11 11v3.2c0 6.1-4.9 11-11 11h-30.7-22.6-7.4c-5.9-0.2-10.7-5-10.7-11v-92.4c0-6.1 4.9-11 11-11h60.4c6 0 10.9 4.8 11 10.8z"/><path fill-rule="evenodd" class="b" d="m469.2 173.4c0 23.2-17.2 38.2-43.9 38.2h-18.9v27.5h-0.1c-0.2 5.8-5 10.5-10.9 10.5h-3.6c-5.8-0.2-10.5-5-10.5-10.9v-92.9c0.2-5.9 5-10.7 11-10.7l33 0.2c26.7 0 44 15 43.9 38.1zm-25.1 0.1c0-8.6-6.4-13-18.8-13h-18.9v26.1h18.9c12.5 0 18.8-4.4 18.8-13.1z"/><path class="b" d="m572 145.9v30.9 26c0 27.7-19.2 47.1-46.7 47.1-27.5 0-46.7-19.4-46.7-47.1v-26-30.9c0-6 4.8-10.8 10.7-11h3.5c6.1 0 11 4.9 11 11v1.6 4.4 50.9c0 19.9 15 22 21.5 22 6.4 0 21.5-2.2 21.5-22v-52.5-4.7c0.2-5.8 4.8-10.4 10.5-10.7h3.6c6.1 0 11 5 11.1 11z"/><path class="b" d="m670.5 149.7c-0.2 5.9-5 10.7-11 10.7h-0.1-20.1-26v19.1h23.2 20.1 0.1c6.1 0 11 4.9 11 11q0 0.1 0 0.3v2.6q0 0.2 0 0.3 0 0.2 0 0.3v0.2c-0.2 5.8-5 10.5-10.9 10.5h-20.2-23.2v19.8h15.6 30.6c6.1 0 11 4.9 11 11v3.2c0 6.1-4.9 11-11 11h-30.6-22.7-7.4c-5.9-0.2-10.7-5-10.7-11v-92.4c0-6.1 4.9-11 11-11h60.4c6 0 10.9 4.8 11 10.8z"/>
</svg>